<?xml version="1.0" standalone="no"?>
<!DOCTYPE svg PUBLIC "-//W3C//DTD SVG 20010904//EN"
 "http://www.w3.org/TR/2001/REC-SVG-20010904/DTD/svg10.dtd">
<svg version="1.0" xmlns="http://www.w3.org/2000/svg"
 width="384.000000pt" height="384.000000pt" viewBox="0 0 384.000000 384.000000"
 preserveAspectRatio="xMidYMid meet">
<metadata>
Created by potrace 1.14, written by Peter Selinger 2001-2017
</metadata>
<g transform="translate(0.000000,384.000000) scale(0.100000,-0.100000)"
fill="#000000" stroke="none">
<path d="M0 2850 l0 -990 25 0 c33 0 52 38 36 68 -6 11 -11 25 -11 30 0 6 35
25 77 42 43 18 83 36 88 39 6 4 26 14 45 21 19 7 77 33 128 57 52 23 99 43
105 43 6 0 18 6 26 14 15 13 82 39 86 34 1 -2 5 -94 8 -205 7 -221 9 -211 -58
-235 -22 -7 -50 -20 -62 -28 -23 -15 -31 -54 -14 -64 5 -3 24 -47 42 -97 30
-79 38 -92 66 -104 29 -12 32 -16 26 -49 -4 -24 0 -44 11 -60 9 -14 16 -32 16
-40 0 -18 26 -67 41 -76 6 -4 10 -13 7 -20 -3 -9 -8 -8 -20 4 -21 20 -74 21
-82 1 -3 -8 -14 -15 -25 -15 -38 0 -33 -20 6 -21 34 -1 35 -2 13 -9 -14 -4
-41 -5 -61 -3 -23 3 -48 -1 -68 -11 l-32 -17 18 -30 c20 -33 10 -61 -23 -68
-10 -1 -26 -9 -34 -15 -13 -11 -39 -22 -125 -56 -11 -5 -27 -11 -35 -14 -8 -4
-35 -17 -59 -31 -24 -14 -49 -25 -54 -25 -6 0 -32 -10 -58 -23 l-48 -22 -1
-57 0 -58 48 -1 c26 0 58 -3 72 -5 14 -3 35 -5 47 -6 44 -1 42 -78 -3 -78 -13
0 -24 -5 -24 -10 0 -15 -69 -9 -82 7 -16 20 -30 15 -26 -9 2 -15 9 -22 21 -22
32 3 17 -15 -18 -22 l-35 -6 0 -169 0 -169 23 5 c18 5 26 -1 41 -30 l20 -36
-30 -24 c-16 -13 -35 -24 -41 -25 -9 0 -13 -23 -13 -80 l0 -80 190 0 c149 0
190 3 190 13 0 7 -4 17 -9 22 -4 6 -11 22 -15 36 -5 21 -1 30 19 43 39 26 59
20 75 -21 8 -21 16 -41 18 -45 2 -5 -8 -12 -22 -18 -14 -5 -26 -14 -26 -20 0
-7 549 -10 1710 -10 l1710 0 0 1920 0 1920 -1920 0 -1920 0 0 -990z m3104 847
c9 -23 16 -48 16 -54 0 -6 7 -16 15 -23 21 -18 19 -57 -4 -70 -45 -23 -60 -13
-97 66 -38 81 -38 99 -2 114 43 17 55 11 72 -33z m382 -143 c20 -42 27 -35
-88 -90 l-67 -33 -21 36 c-23 39 -20 62 9 70 10 2 40 15 67 28 68 32 80 31
100 -11z m-1711 -34 c10 -11 24 -20 30 -20 7 0 16 -7 19 -15 3 -9 22 -23 41
-31 19 -8 35 -19 35 -24 0 -6 6 -10 14 -10 7 0 19 -7 26 -15 19 -23 -6 -19
-37 5 -14 11 -31 20 -38 20 -7 0 -20 11 -28 24 -9 13 -37 32 -62 41 -44 17
-52 25 -38 38 10 11 19 8 38 -13z m1440 -76 c22 -42 14 -63 -30 -77 -24 -8
-31 -6 -47 13 -28 35 -23 64 15 83 43 21 40 22 62 -19z m-2525 -13 c0 -29 21
-41 64 -35 38 5 42 3 59 -26 24 -41 17 -57 -32 -70 -45 -12 -47 -16 -27 -64
17 -40 12 -47 -37 -64 -43 -16 -47 -14 -62 31 -10 30 -13 32 -60 32 -44 0 -51
3 -63 28 -18 38 -10 55 38 75 29 12 38 21 33 32 -3 8 -8 29 -11 47 -4 29 -1
33 24 38 16 4 34 8 39 10 15 4 35 -15 35 -34z m2356 -66 c13 -28 14 -38 4 -50
-7 -8 -18 -15 -24 -15 -6 0 -38 -14 -70 -30 -32 -17 -62 -30 -67 -30 -13 0
-39 63 -34 81 3 10 16 21 28 24 28 8 65 23 97 41 38 20 48 17 66 -21z m-1036
-5 c12 -8 9 -10 -12 -10 -15 0 -30 5 -33 10 -8 13 25 13 45 0z m70 -56 c0 -2
-7 -4 -15 -4 -8 0 -15 4 -15 10 0 5 7 7 15 4 8 -4 15 -8 15 -10z m1229 -66
c44 -96 45 -104 19 -122 -43 -31 -60 -21 -95 52 -39 80 -42 109 -10 122 45 18
56 12 86 -52z m-1173 35 c10 -10 12 -19 6 -21 -14 -4 -52 16 -52 28 0 16 27
11 46 -7z m-726 -6 c0 -15 -47 -44 -56 -35 -3 4 -1 16 6 27 12 23 50 29 50 8z
m70 -47 c0 -12 -8 -12 -35 0 -18 8 -17 9 8 9 15 1 27 -3 27 -9z m725 0 c3 -5
-3 -10 -14 -10 -11 0 -23 5 -26 10 -3 6 3 10 14 10 11 0 23 -4 26 -10z m250
-20 c8 -35 41 -48 76 -30 20 11 25 10 41 -10 10 -12 18 -31 18 -41 0 -17 -8
-19 -83 -19 -91 0 -139 10 -163 35 -15 15 -18 14 -39 -5 -25 -24 -89 -36 -131
-26 l-28 7 43 25 c48 27 71 30 89 12 9 -9 12 -9 12 2 0 13 21 30 85 67 11 7
32 12 47 12 21 1 28 -5 33 -29z m-919 -21 c3 -6 23 -18 43 -27 33 -15 34 -16
13 -20 -15 -2 -31 4 -43 17 -11 12 -24 21 -29 21 -6 0 -10 5 -10 10 0 13 17
13 26 -1z m168 -95 c11 -43 -11 -54 -38 -19 l-24 30 21 7 c34 10 34 10 41 -18z
m-644 -77 c0 -15 -58 -39 -65 -27 -3 4 -2 15 1 24 7 19 64 22 64 3z m65 -47
c4 -13 18 -23 36 -27 29 -5 41 -23 16 -23 -13 0 -97 57 -97 66 0 15 40 0 45
-16z m1969 -22 c10 -24 37 -84 62 -135 24 -50 44 -98 44 -106 0 -7 9 -23 20
-34 17 -19 24 -20 55 -12 37 10 55 6 55 -14 0 -7 14 -39 30 -71 17 -32 30 -67
30 -76 0 -10 7 -23 15 -30 8 -7 15 -19 15 -28 0 -8 6 -23 14 -31 7 -9 21 -38
31 -66 10 -27 22 -54 27 -59 18 -21 8 -44 -23 -51 -38 -9 -47 -29 -25 -65 20
-35 13 -56 -25 -69 -22 -7 -29 -16 -29 -35 0 -14 5 -28 10 -31 21 -13 9 -35
-27 -50 -53 -23 -93 -41 -130 -60 l-33 -16 0 45 c0 39 3 45 31 56 56 24 62 36
37 83 -35 68 -38 76 -38 96 0 10 -7 21 -15 25 -11 4 -15 20 -15 58 0 50 2 54
30 65 34 13 37 25 15 67 -8 15 -15 34 -15 41 0 7 -6 18 -14 24 -8 7 -17 30
-21 52 -4 21 -11 39 -16 39 -5 0 -9 6 -9 14 0 7 -15 19 -32 26 -18 8 -41 20
-50 28 -10 8 -24 12 -32 9 -10 -4 -13 -1 -10 7 3 8 -10 23 -33 37 -21 12 -42
29 -46 37 -6 10 -12 10 -22 2 -16 -13 -23 29 -24 141 0 64 3 78 17 83 9 3 24
9 32 14 77 45 91 43 114 -10z m-1402 -133 c-2 -88 -5 -102 -23 -117 -13 -11
-19 -24 -15 -34 4 -9 2 -22 -4 -29 -13 -15 -50 -8 -50 9 0 18 -90 78 -107 72
-23 -9 -11 -39 22 -56 17 -8 32 -18 35 -21 3 -4 27 -23 53 -43 47 -36 50 -37
68 -20 10 9 19 13 20 8 0 -5 0 -98 -1 -206 -1 -129 3 -211 11 -238 9 -29 9
-44 2 -51 -8 -8 -14 -5 -22 10 -15 26 -47 27 -61 2 -8 -16 -5 -23 23 -43 81
-58 88 -78 27 -78 -27 0 -45 6 -59 21 l-20 21 -44 -21 c-49 -24 -149 -29 -164
-8 -4 6 -6 57 -3 112 l5 100 33 3 c21 2 41 -3 52 -13 15 -14 18 -14 30 0 15
18 17 17 -39 45 l-44 22 -29 -22 c-15 -11 -33 -18 -38 -15 -6 3 -10 -43 -12
-117 l-3 -123 -108 -5 c-60 -3 -116 -2 -125 1 -10 4 -26 30 -36 58 -10 29 -27
58 -37 64 -17 11 -19 27 -19 189 0 107 -4 178 -10 178 -5 0 -12 16 -16 35 -3
20 -17 44 -32 55 -30 24 -27 29 19 34 19 2 35 9 37 18 1 8 26 23 55 33 29 10
91 38 138 62 48 23 98 43 113 43 36 0 35 33 -3 71 -29 29 -29 29 -6 29 13 0
27 5 30 10 10 17 23 11 28 -12 4 -13 12 -32 20 -42 13 -18 16 -18 90 18 41 20
82 36 89 36 8 0 19 5 25 11 18 18 77 47 93 45 12 -1 15 -19 12 -101z m-442 70
c7 -9 11 -17 9 -19 -7 -7 -49 13 -49 24 0 15 26 12 40 -5z m796 -50 c4 -8 12
-15 18 -15 15 0 96 -61 96 -72 0 -15 -22 -8 -66 20 -24 15 -43 32 -44 38 0 6
-13 14 -30 18 -16 3 -30 10 -30 16 0 16 50 12 56 -5z m-1368 -61 c24 -7 31
-34 8 -34 -8 0 -21 -3 -30 -6 -12 -5 -16 0 -16 20 0 28 3 29 38 20z m93 -54
c30 -17 22 -30 -11 -19 -16 6 -30 15 -30 20 0 12 17 11 41 -1z m1461 -8 c7 -9
26 -26 42 -37 16 -11 39 -27 51 -35 23 -15 58 -38 86 -55 45 -28 97 -65 120
-87 15 -14 34 -28 43 -31 9 -4 16 -14 16 -23 0 -15 -3 -15 -23 4 -13 12 -31
22 -40 22 -9 0 -31 15 -49 33 -18 17 -52 41 -75 51 -24 10 -43 25 -43 33 0 8
-13 19 -30 24 -16 6 -30 15 -30 19 0 5 -10 12 -22 16 -25 8 -98 65 -98 77 0
14 39 7 52 -11z m-1392 -52 c12 -8 11 -10 -7 -10 -12 0 -25 5 -28 10 -8 13 15
13 35 0z m2154 -35 c21 -19 44 -35 51 -35 7 0 15 -7 19 -15 7 -20 32 -19 40 1
3 8 11 12 17 8 8 -5 6 -11 -7 -21 -16 -12 -17 -15 -4 -23 12 -7 12 -12 -4 -28
-16 -19 -16 -22 -1 -52 23 -44 16 -72 -22 -89 -28 -12 -32 -18 -26 -40 9 -38
21 -49 55 -53 l31 -3 1 -80 c1 -66 -2 -84 -18 -102 -11 -13 -26 -23 -33 -23
-8 0 -24 -6 -36 -14 -46 -29 -66 -29 -77 -2 -5 14 -18 31 -30 38 -15 10 -20
23 -20 58 0 40 4 48 31 64 26 15 30 22 24 45 -3 14 -17 37 -31 52 -23 24 -24
30 -24 180 0 190 1 192 64 134z m-2099 4 c12 -19 -5 -23 -22 -6 -16 16 -16 17
-1 17 9 0 20 -5 23 -11z m95 -264 c0 -58 -2 -105 -5 -105 -16 0 -43 42 -60 93
-11 31 -23 57 -27 57 -4 0 -8 9 -8 20 0 24 26 39 68 40 l32 0 0 -105z m1068
-44 c20 -21 47 -41 59 -45 13 -4 41 -23 64 -42 22 -19 45 -34 50 -34 5 0 17
-7 27 -16 34 -30 95 -74 103 -74 5 0 9 -7 9 -15 0 -8 14 -18 32 -23 17 -4 33
-13 36 -20 5 -15 -34 -16 -43 -2 -6 10 -60 49 -105 75 -9 6 -24 17 -33 25 -9
8 -32 26 -53 40 -20 14 -47 35 -60 47 -13 12 -34 25 -46 28 -31 10 -85 51 -98
75 -19 35 17 23 58 -19z m-1302 -82 c13 -27 19 -30 42 -24 79 19 75 21 105
-47 15 -35 27 -68 27 -75 0 -7 11 -29 25 -49 14 -20 25 -40 25 -45 0 -11 -26
-17 -117 -24 l-83 -7 0 -37 c0 -24 -7 -44 -18 -54 -26 -23 -93 -50 -103 -40
-4 4 -5 99 -2 210 l6 202 26 10 c42 15 50 13 67 -20z m1704 -251 c0 -10 -4
-18 -10 -18 -5 0 -10 15 -10 33 0 24 3 28 10 17 5 -8 10 -23 10 -32z m685 -67
c1 -21 -5 -35 -15 -39 -8 -3 -17 -8 -20 -12 -9 -12 -73 -40 -90 -40 -10 0 -29
-9 -44 -21 -32 -25 -46 -18 -46 26 0 28 5 36 31 47 17 7 59 27 93 45 75 39 91
38 91 -6z m-1115 -12 c0 -12 -27 -11 -35 1 -11 17 5 32 21 19 8 -6 14 -15 14
-20z m48 -30 c9 -11 37 -31 62 -44 25 -12 54 -32 64 -44 11 -12 23 -21 28 -21
5 0 35 -20 66 -45 89 -71 87 -68 73 -73 -7 -2 -23 5 -35 17 -12 12 -28 21 -34
21 -6 0 -19 11 -28 25 -9 14 -25 25 -35 25 -10 0 -21 5 -24 10 -7 12 -79 50
-94 50 -5 0 -13 -45 -17 -100 -3 -55 -11 -103 -15 -106 -5 -3 -9 32 -9 77 l0
81 -46 41 c-33 29 -42 43 -34 51 8 8 14 6 21 -6 10 -19 54 -25 63 -9 10 15 -4
39 -25 44 -10 3 -19 10 -19 16 0 18 19 13 38 -10z m1220 -82 c12 -18 22 -36
22 -40 0 -9 -76 -47 -95 -47 -11 0 -15 11 -15 39 0 31 6 44 26 60 15 12 29 21
33 21 3 0 16 -15 29 -33z m-2651 -39 c-3 -7 -5 -2 -5 12 0 14 2 19 5 13 2 -7
2 -19 0 -25z m118 -91 c0 -48 -2 -87 -5 -87 -3 0 -14 14 -23 30 -14 24 -25 30
-51 30 -32 0 -32 1 -30 42 2 40 4 43 35 50 18 3 35 11 37 18 2 6 11 10 21 8
13 -3 16 -18 16 -91z m2385 72 c0 -24 -23 -21 -28 4 -2 10 3 17 12 17 10 0 16
-9 16 -21z m-691 -33 c-4 -65 16 -101 77 -141 81 -54 70 -82 -16 -40 -45 21
-60 10 -60 -48 -1 -36 -3 -47 -10 -37 -5 9 -8 41 -7 73 1 50 -2 60 -28 87 -16
16 -27 31 -24 34 2 2 14 9 27 15 18 9 22 20 22 56 0 25 5 45 10 45 6 0 10 -18
9 -44z m-1393 -130 c3 -8 16 -17 29 -20 13 -3 27 -15 30 -26 3 -11 18 -23 33
-26 15 -4 34 -13 42 -20 41 -37 84 -68 127 -90 26 -14 55 -33 63 -43 9 -10 26
-24 39 -30 12 -7 32 -21 44 -31 41 -35 92 -70 120 -81 30 -12 40 -53 10 -42
-10 3 -23 12 -29 20 -12 14 -119 88 -163 112 -14 8 -60 39 -101 70 -41 31 -93
67 -115 82 -22 14 -46 33 -54 42 -7 9 -21 17 -30 17 -17 0 -71 54 -71 71 0 14
20 10 26 -5z m1034 -63 c0 -23 -4 -45 -10 -48 -6 -4 -10 17 -10 57 0 44 3 59
10 48 5 -8 10 -34 10 -57z m-1453 25 c-3 -8 -6 -5 -6 6 -1 11 2 17 5 13 3 -3
4 -12 1 -19z m33 -57 c0 -23 33 -42 61 -36 l29 7 0 -54 c0 -29 -4 -58 -8 -64
-8 -13 -74 -25 -66 -12 3 4 -6 18 -19 30 -19 19 -24 34 -26 81 -2 46 1 57 13
57 9 0 16 -4 16 -9z m1431 -86 c11 -50 17 -58 66 -93 30 -20 67 -44 81 -52 15
-8 33 -23 40 -32 7 -10 19 -18 27 -18 7 0 25 -13 38 -30 14 -16 32 -30 39 -30
19 0 38 21 38 42 0 10 5 18 10 18 6 0 10 -14 10 -32 0 -34 42 -98 65 -98 8 0
17 -11 21 -25 4 -18 13 -25 29 -25 26 0 41 -15 25 -25 -6 -3 -22 2 -38 13 -15
10 -35 22 -45 25 -25 9 -57 -9 -57 -33 0 -11 -4 -20 -10 -20 -5 0 -10 18 -10
39 0 48 -34 111 -60 111 -11 0 -23 6 -27 13 -4 7 -30 27 -58 44 -56 36 -88 59
-116 86 -11 9 -26 17 -34 17 -33 0 -40 -41 -41 -235 l-2 -190 -43 3 c-31 2
-60 14 -99 40 -59 39 -70 50 -70 69 0 15 27 7 55 -17 11 -9 31 -22 45 -28 14
-7 32 -17 41 -24 9 -6 24 -8 33 -5 14 6 16 31 16 207 0 201 0 201 -26 235 -14
19 -34 37 -45 40 -21 7 -25 30 -8 41 6 3 16 1 22 -5 18 -18 48 -13 54 9 9 34
21 22 34 -35z m903 -130 c3 -9 -3 -20 -14 -27 -28 -18 -25 -36 8 -40 27 -3 26
-3 -16 -31 -51 -33 -72 -29 -72 13 0 23 6 33 25 42 26 12 34 28 13 28 -15 0
23 29 38 30 7 0 14 -7 18 -15z m-2268 -40 c10 -26 -6 -38 -27 -19 -15 13 -17
19 -7 26 19 11 28 10 34 -7z m2314 -46 c0 -6 -4 -7 -10 -4 -5 3 -10 11 -10 16
0 6 5 7 10 4 6 -3 10 -11 10 -16z m120 -36 c-1 -40 -16 -47 -51 -23 -29 21
-30 24 -13 31 35 14 64 10 64 -8z m-1466 -24 c26 -17 46 -35 46 -40 0 -5 7 -9
16 -9 9 0 29 -10 44 -22 15 -13 36 -28 46 -35 18 -11 17 -12 -7 -12 -15 -1
-45 13 -69 32 -23 17 -53 38 -65 45 -13 6 -37 26 -55 42 -43 40 -15 40 44 -1z
m-964 -23 c0 -48 -22 -63 -67 -47 -28 10 -37 11 -43 1 -4 -7 -14 -10 -21 -7
-9 3 1 11 24 21 21 9 35 20 32 25 -2 5 6 12 20 15 14 4 25 11 25 16 0 6 7 10
15 10 10 0 15 -10 15 -34z m-153 -12 c-2 -2 -12 -1 -22 3 -18 6 -18 7 1 13 17
7 33 -5 21 -16z m481 -20 c12 -8 22 -22 22 -30 0 -8 10 -14 24 -14 13 0 43
-17 67 -38 50 -42 90 -70 134 -91 l30 -15 -32 -4 c-24 -2 -42 5 -78 32 -26 20
-50 36 -54 36 -4 0 -26 18 -50 40 -24 23 -56 47 -72 56 -16 8 -29 21 -29 29 0
19 10 19 38 -1z m-491 -51 c26 -12 31 -18 20 -24 -8 -5 -28 -3 -45 3 -36 14
-55 3 -29 -17 13 -9 14 -14 5 -17 -22 -8 -75 20 -81 42 -3 11 -2 18 2 16 4 -3
13 -1 21 5 23 14 68 11 107 -8z m93 7 c0 -5 -4 -10 -9 -10 -6 0 -13 5 -16 10
-3 6 1 10 9 10 9 0 16 -4 16 -10z m-240 -78 c0 -10 -5 -23 -11 -29 -9 -9 -5
-14 15 -19 27 -6 33 -18 15 -29 -12 -8 -64 3 -56 12 3 3 -6 15 -21 28 -29 25
-28 33 6 38 12 2 25 6 28 10 13 13 24 7 24 -11z m2016 -69 c-11 -11 -19 6 -11
24 8 17 8 17 12 0 3 -10 2 -21 -1 -24z m-1943 -6 c4 -11 4 -23 1 -28 -13 -22
-114 -51 -114 -33 0 17 37 32 64 27 27 -6 29 -5 24 25 -5 34 12 40 25 9z
m-203 -114 c13 -13 10 -14 -30 -8 -55 9 -66 15 -49 26 18 12 60 2 79 -18z m67
21 c-3 -3 -12 -4 -19 -1 -8 3 -5 6 6 6 11 1 17 -2 13 -5z m1388 -204 c3 -5 -1
-10 -9 -10 -8 0 -18 5 -21 10 -3 6 1 10 9 10 8 0 18 -4 21 -10z m65 -50 c5 -9
23 -20 40 -23 16 -4 30 -11 30 -17 0 -7 -9 -9 -22 -4 -28 8 -88 53 -88 65 0
14 30 -2 40 -21z m-1242 -25 c20 -43 15 -62 -20 -74 -26 -9 -35 -8 -50 5 -29
27 -24 70 10 82 41 16 48 14 60 -13z m1391 -72 c23 -15 41 -30 41 -35 0 -15
-16 -8 -40 17 -13 14 -31 25 -41 25 -10 0 -21 5 -24 10 -12 19 23 10 64 -17z
m103 -75 c-11 -11 -52 -1 -52 13 0 5 9 9 19 9 11 0 23 6 28 13 5 9 9 7 11 -7
2 -10 -1 -23 -6 -28z"/>
<path d="M647 3354 c-21 -11 -27 -20 -22 -32 4 -9 10 -27 12 -39 6 -28 19 -29
61 -3 28 17 31 24 26 47 -4 16 -9 31 -11 36 -7 11 -35 8 -66 -9z"/>
<path d="M1400 2740 c-13 -8 -13 -10 1 -10 9 0 24 -9 34 -20 10 -11 22 -20 27
-20 16 0 8 40 -11 50 -24 12 -32 12 -51 0z"/>
<path d="M1340 2571 l0 -148 -37 -7 c-21 -3 -50 -6 -64 -6 -14 0 -33 -6 -43
-13 -18 -13 -18 -15 5 -36 13 -12 31 -20 40 -18 12 3 15 -1 11 -19 -3 -19 0
-24 16 -24 11 0 27 -2 35 -5 9 -4 13 1 13 17 -1 18 4 23 24 23 34 0 38 17 39
166 1 152 -7 219 -25 219 -11 0 -14 -30 -14 -149z"/>
<path d="M1057 2488 c10 -18 25 -38 33 -44 8 -7 26 -21 39 -33 18 -16 28 -18
42 -10 28 15 23 27 -18 46 -21 10 -50 30 -66 45 -37 38 -52 35 -30 -4z"/>
<path d="M1500 2175 c-10 -12 -8 -18 11 -35 13 -10 32 -17 42 -14 12 4 17 0
17 -16 0 -25 29 -38 41 -19 16 25 10 38 -27 55 -20 9 -38 23 -41 31 -7 17 -28
17 -43 -2z"/>
<path d="M696 1072 c-3 -5 1 -9 9 -9 8 0 12 4 9 9 -3 4 -7 8 -9 8 -2 0 -6 -4
-9 -8z"/>
</g>
</svg>
